<?xml version="1.0" standalone="no"?>
<!DOCTYPE svg PUBLIC "-//W3C//DTD SVG 1.1//EN" "http://www.w3.org/Graphics/SVG/1.1/DTD/svg11.dtd" >
<svg xmlns="http://www.w3.org/2000/svg">
<metadata>Generated by IcoMoon</metadata>
<defs>
<font id="icons" horiz-adv-x="1024">
<font-face units-per-em="1024" ascent="960" descent="-64" />
<missing-glyph horiz-adv-x="1024" />
<glyph unicode="&#x20;" horiz-adv-x="512" d="" />
<glyph unicode="&#xe900;" glyph-name="arrow" d="M771.531 716.179l241.361-241.359c14.81-14.811 14.81-38.824 0-53.636l-241.361-241.358c-14.81-14.81-38.821-14.81-53.635 0-14.81 14.81-14.81 38.825 0 53.635l176.617 176.615h-894.513v75.852h894.513l-176.617 176.616c-14.81 14.811-14.81 38.824 0 53.635 14.814 14.811 38.825 14.811 53.635 0z" />
<glyph unicode="&#xe901;" glyph-name="cross" d="M47.283 912.717c14.282 14.282 37.438 14.282 51.72 0l877.718-877.711c14.277-14.285 14.277-37.442 0-51.727-14.285-14.277-37.442-14.277-51.727 0l-877.711 877.718c-14.282 14.282-14.282 37.438 0 51.72zM976.72 912.717c14.277-14.282 14.277-37.438 0-51.72l-877.718-877.718c-14.282-14.277-37.437-14.277-51.72 0-14.282 14.285-14.282 37.442 0 51.727l877.711 877.711c14.285 14.282 37.442 14.282 51.727 0z" />
<glyph unicode="&#xe902;" glyph-name="quotes" d="M11.95 292.864l86.016 321.536h137.216l-35.84-321.536h-187.392zM240.302 292.864l86.016 321.536h137.216l-35.84-321.536h-187.392zM775.229 614.4l-86.016-321.536h-137.216l35.84 321.536h187.392zM1003.581 614.4l-86.016-321.536h-137.216l35.84 321.536h187.392z" />
<glyph unicode="&#xe903;" glyph-name="coffee-pot" d="M945.925 688.167l-67.947 87.691c-9.099 11.742-22.784 18.476-37.552 18.476h-56.11c-5.296 9.858-15.638 16.568-27.504 16.568h-63.225l-184.517 62.094c-4.342 1.462-8.78 2.532-13.28 3.226l9.118 46.020c1.843 9.31-0.517 18.86-6.48 26.204-5.959 7.342-14.772 11.554-24.179 11.554h-58.422c-9.404 0-18.215-4.21-24.179-11.552s-8.326-16.892-6.48-26.204l9.116-46.022c-4.496-0.694-8.936-1.764-13.275-3.226l-184.52-62.096h-63.225c-14.929 0-29.186-7.198-38.14-19.254l-29.537-39.76c-5.275-7.1-6.109-16.444-2.179-24.382 3.932-7.94 11.836-12.871 20.628-12.871h24.521c0.491 0 0.957-0.239 1.25-0.639l101.496-139.203 8.5-68.652c0.941-7.59 7.339-13.144 14.725-13.144 0.616 0 1.236 0.041 1.862 0.119 8.14 1.026 13.917 8.524 12.9 16.742l-8.839 71.392 5.705 199.649h70.904l44.008-355.438c0.529-4.267 1.629-8.336 3.172-12.164h-101.624c-0.782 0-1.444 0.59-1.539 1.373l-4.356 35.187c-1.018 8.224-8.429 14.056-16.587 13.024-8.14-1.029-13.916-8.524-12.9-16.745l4.356-35.189c1.953-15.762 15.293-27.65 31.026-27.65h3.475v-85.965h-3.829c-15.602 0-28.605-11.305-30.921-26.885l-41.48-279.172c-2.062-13.873 1.955-27.921 11.020-38.551 9.065-10.628 22.235-16.723 36.125-16.723h36.264c8.207 0 14.858 6.717 14.858 14.999 0 8.285-6.65 15.002-14.858 15.002h-36.264c-5.311 0-10.142 2.238-13.609 6.3-3.465 4.062-4.939 9.218-4.152 14.524l2.294 15.44h446.998l2.292-15.44c0.788-5.303-0.685-10.459-4.152-14.524-3.467-4.062-8.299-6.3-13.609-6.3h-320.366c-8.207 0-14.855-6.717-14.855-15.002 0-8.282 6.649-14.999 14.855-14.999h320.366c13.895 0 27.060 6.095 36.125 16.723 9.067 10.628 13.083 24.678 11.025 38.549l-41.479 279.177c-2.316 15.577-15.319 26.882-30.922 26.882h-3.828v85.97h3.474c15.733 0 29.072 11.886 31.025 27.653l27.346 220.848h48.169c6.173 0 12.203 1.187 17.922 3.53l27.692 11.342c21.536 8.816 46.195 1.79 59.975-17.098 8.96-12.283 12.242-27.875 8.999-42.776l-48.316-221.969c-0.158-0.724-0.78-1.231-1.516-1.231h-41.945c-17.24 0-31.266-14.16-31.266-31.566v-33.131c0-17.406 14.026-31.568 31.266-31.568h83.054c22.153 0 41.218 15.189 46.368 36.94l74.581 314.924c5.734 24.222 0.307 49.359-14.889 68.971zM758.365 779.332v-38.398c0-8.836-6.259-16.35-14.885-17.864l-47.377-8.32 8.187 66.15h52.521c0.856 0 1.553-0.702 1.553-1.568zM414.627 929.426c0.463 0.574 1.017 0.574 1.2 0.574h58.422c0.183 0 0.736 0 1.202-0.574 0.466-0.572 0.358-1.12 0.322-1.3l-10.096-50.958h-41.277l-10.096 50.958c-0.034 0.178-0.141 0.726 0.324 1.3zM108.556 744.634h-11.214l21.555 29.014c3.372 4.542 8.742 7.252 14.366 7.252h83.162l-4.469-156.401-78.218 107.279c-5.868 8.050-15.281 12.856-25.182 12.856zM390.407 844.536c5.183 1.746 10.586 2.63 16.055 2.63h77.154c5.469 0 10.869-0.884 16.055-2.632l99.95-33.634h-309.164l99.951 33.636zM390.551 429.185l-43.547 351.715h196.067l-43.544-351.715c-1.122-9.055-8.787-15.884-17.822-15.884h-73.331c-9.040 0-16.703 6.827-17.822 15.884zM260.724 266.001c0.115 0.77 0.761 1.334 1.535 1.334h102.451c-1.419-3.482-2.484-7.148-3.055-10.993l-33.292-224.076h-102.366l34.727 233.735zM500.173 251.889l32.631-219.621h-174.392l32.631 219.624c1.307 8.802 8.943 15.443 17.762 15.443h73.609c8.816 0 16.452-6.641 17.759-15.445zM629.353 266.001l34.726-233.735h-101.227l-33.292 224.073c-0.571 3.842-1.638 7.514-3.057 10.993h101.313c0.778 0.002 1.424-0.561 1.538-1.331zM594.274 297.333h-298.47v85.967h298.47v-85.967zM629.002 414.674c-0.098-0.783-0.758-1.373-1.538-1.373h-101.625c1.546 3.825 2.645 7.895 3.174 12.164l44.003 355.435h101.33l-45.344-366.226zM931.916 626.174l-74.581-314.924c-1.938-8.194-9.121-13.917-17.467-13.917h-83.056c-0.856 0-1.551 0.705-1.551 1.57v33.131c0 0.863 0.697 1.565 1.551 1.565h41.945c14.57 0 27.414 10.425 30.54 24.793l48.313 221.964c5.081 23.345-0.056 47.77-14.097 67.009-21.845 29.937-60.945 41.087-95.069 27.104l-27.692-11.342c-2.155-0.883-4.425-1.329-6.751-1.329h-44.454l2.701 21.823 56.325 9.889c22.891 4.020 39.504 23.963 39.504 47.421v23.4h52.348c5.564 0 10.718-2.538 14.146-6.96l67.95-87.691c9.587-12.368 13.010-28.228 9.394-43.508z" />
<glyph unicode="&#xe904;" glyph-name="cup" d="M1004 545.523h-164v41.701c0 10.882-8.955 19.702-20 19.702h-432c-11.044 0-20-8.82-20-19.702 0-10.88 8.956-19.701 20-19.701h412.001v-151.045c0-132.684-71.915-256.005-188.037-323.104h-383.928c-116.122 67.098-188.036 190.42-188.036 323.103v151.043h134c11.044 0 20 8.82 20 19.702 0 10.88-8.956 19.702-20 19.702h-154.001c-11.044 0-20-8.822-20-19.702v-170.745c0-74.471 20.32-147.493 58.764-211.167 25.926-42.942 59.566-80.864 98.96-111.937h-137.724c-11.044 0-20-8.82-20-19.702 0-71.7 59.214-130.030 132-130.030h623.999c72.787 0 132.001 58.33 132.001 130.030 0 10.882-8.956 19.702-20 19.702h-185.725c36.259 28.599 67.624 63.011 92.605 101.792h56.453c106.236 0 192.666 85.14 192.666 189.79v140.866c0 10.882-8.955 19.702-20 19.702zM845.81 53.971c-9.156-40.531-45.949-70.927-89.811-70.927h-623.999c-43.862 0-80.652 30.396-89.81 70.927h803.62zM839.999 416.478v10.836h64v-42.358c0-39.47-32.597-71.581-72.666-71.581h-4.542c8.73 33.503 13.208 68.143 13.208 103.103zM984 384.955c0-82.924-68.486-150.387-152.666-150.387h-34.040c6.385 12.847 12.089 26 17.073 39.403h16.966c62.126 0 112.666 49.788 112.666 110.985v62.061c0 10.88-8.956 19.701-20 19.701h-84v39.403h144v-121.164zM439.099 843.324l-10.405 12.871c-15.276 18.89-15.299 45.296-0.055 64.213 6.868 8.523 5.421 20.915-3.231 27.679-8.655 6.767-21.232 5.339-28.1-3.184-26.884-33.367-26.844-79.939 0.098-113.258l10.407-12.871c19.962-24.687 19.991-59.192 0.072-83.917l-10.665-13.236c-6.867-8.522-5.42-20.916 3.232-27.679 3.679-2.875 8.064-4.272 12.419-4.272 5.893 0 11.73 2.554 15.681 7.455l10.663 13.236c31.561 39.17 31.515 93.846-0.116 132.962zM549.958 799.027l-10.407 12.869c-15.276 18.892-15.297 45.298-0.053 64.215 6.867 8.523 5.42 20.915-3.232 27.679-8.654 6.767-21.232 5.339-28.1-3.184-26.884-33.367-26.844-79.939 0.098-113.26l10.407-12.87c19.96-24.688 19.989-59.198 0.070-83.919l-10.662-13.233c-6.868-8.524-5.421-20.916 3.231-27.679 3.679-2.875 8.065-4.27 12.421-4.27 5.892 0 11.732 2.555 15.679 7.455l10.66 13.234c31.562 39.167 31.516 93.843-0.112 132.963zM328.241 799.026l-10.405 12.869c-15.276 18.89-15.299 45.298-0.057 64.215 6.868 8.523 5.42 20.915-3.232 27.681-8.654 6.766-21.232 5.335-28.099-3.184-26.882-33.366-26.843-79.941 0.099-113.26l10.407-12.87c19.959-24.688 19.989-59.198 0.072-83.916l-10.665-13.234c-6.867-8.524-5.421-20.916 3.231-27.68 3.677-2.875 8.062-4.272 12.419-4.272 5.892 0 11.73 2.554 15.678 7.452l10.666 13.236c31.561 39.169 31.513 93.844-0.115 132.964z" />
<glyph unicode="&#xe905;" glyph-name="star" d="M512 919.040l114.95-353.783h371.991l-300.945-218.649 114.95-353.784-300.945 218.649-300.946-218.649 114.951 353.784-300.946 218.649h371.99l114.951 353.783z" />
<glyph unicode="&#xe906;" glyph-name="bean" d="M44.682 94.438c-98.35 173.397-31.425 445.353 172.035 648.828 231.049 230.971 550.524 286.035 713.639 122.987 0.192-0.213 0.35-0.455 0.614-0.672-32.644-94.957-136.602-296.999-448.218-406.231-285.452-100.117-395.566-259.294-438.070-364.911zM976.235 806.895c-24.725-57.665-67.759-133.024-141.901-207.146-74.526-74.543-180.45-147.755-330.487-200.372-304.511-106.761-389.592-281.532-413.33-366.225 1.121-1.131 2.086-2.304 3.176-3.401 163.098-163.055 482.586-107.994 713.621 123.017 205.577 205.538 271.689 481.019 168.922 654.127z" />
<glyph unicode="&#xe907;" glyph-name="insta" d="M610 448c0-54.126-43.875-98-98-98s-98 43.875-98 98c0 54.126 43.875 98 98 98s98-43.875 98-98zM741.188 621.391c-4.712 12.765-12.227 24.32-21.992 33.805-9.485 9.765-21.031 17.281-33.805 21.992-10.359 4.023-25.921 8.812-54.586 10.117-31.007 1.413-40.304 1.718-118.804 1.718-78.507 0-87.804-0.296-118.804-1.711-28.665-1.312-44.234-6.101-54.586-10.125-12.774-4.712-24.328-12.227-33.805-21.992-9.765-9.485-17.281-21.031-21.999-33.805-4.023-10.359-8.812-25.93-10.117-54.593-1.415-31-1.719-40.297-1.719-118.805 0-78.499 0.305-87.796 1.719-118.804 1.305-28.664 6.094-44.226 10.117-54.586 4.719-12.773 12.226-24.32 21.992-33.804 9.484-9.766 21.031-17.282 33.804-21.992 10.36-4.032 25.93-8.821 54.595-10.126 31-1.413 40.288-1.711 118.796-1.711 78.516 0 87.813 0.298 118.805 1.711 28.664 1.305 44.234 6.094 54.593 10.126 25.64 9.89 45.906 30.156 55.797 55.796 4.023 10.36 8.812 25.923 10.125 54.586 1.415 31.008 1.711 40.305 1.711 118.804 0 78.509-0.296 87.806-1.711 118.805-1.305 28.664-6.094 44.234-10.125 54.593zM512 297.031c-83.383 0-150.977 67.585-150.977 150.969s67.594 150.969 150.977 150.969c83.375 0 150.969-67.585 150.969-150.969s-67.594-150.969-150.969-150.969zM668.938 569.656c-19.485 0-35.282 15.797-35.282 35.282s15.797 35.282 35.282 35.282c19.485 0 35.282-15.797 35.282-35.282-0.008-19.485-15.797-35.282-35.282-35.282zM512 960c-282.726 0-512-229.274-512-512s229.274-512 512-512c282.726 0 512 229.274 512 512s-229.274 512-512 512zM804.227 326.789c-1.422-31.297-6.399-52.665-13.664-71.368-15.273-39.492-46.492-70.711-85.984-85.984-18.696-7.266-40.071-12.234-71.36-13.664-31.352-1.429-41.367-1.773-121.211-1.773-79.852 0-89.86 0.344-121.219 1.773-31.289 1.43-52.665 6.399-71.36 13.664-19.625 7.382-37.39 18.954-52.078 33.915-14.954 14.679-26.524 32.452-33.906 52.069-7.266 18.696-12.243 40.071-13.664 71.36-1.446 31.359-1.781 41.376-1.781 121.219s0.336 89.86 1.773 121.211c1.422 31.297 6.39 52.665 13.656 71.368 7.384 19.617 18.962 37.39 33.923 52.069 14.679 14.961 32.452 26.532 52.069 33.915 18.703 7.266 40.071 12.234 71.368 13.664 31.351 1.429 41.367 1.773 121.211 1.773s89.86-0.344 121.211-1.781c31.297-1.422 52.665-6.39 71.368-13.648 19.617-7.384 37.39-18.962 52.078-33.923 14.953-14.687 26.531-32.452 33.906-52.069 7.274-18.703 12.242-40.071 13.672-71.368 1.43-31.351 1.766-41.367 1.766-121.211s-0.336-89.86-1.773-121.211z" />
<glyph unicode="&#xe908;" glyph-name="case-1" d="M1005.986 910.584c-24.013 24.261-63.078 24.261-87.090 0l-124.577-125.887c-5.863-5.925-5.872-15.536-0.017-21.469 5.854-5.934 15.353-5.942 21.212-0.019l124.578 125.886c12.324 12.454 32.376 12.45 44.698 0 5.938-6.002 9.209-14.029 9.209-22.602s-3.272-16.599-9.209-22.6l-420.032-424.452c-12.324-12.452-32.373-12.452-44.698 0-5.938 6-9.21 14.026-9.21 22.599 0 5.375 1.287 10.533 3.71 15.114 0.037 0.067 0.081 0.13 0.117 0.199 1.426 2.647 3.222 5.105 5.382 7.289l232.652 235.099c5.864 5.925 5.873 15.537 0.019 21.47-5.852 5.933-15.35 5.943-21.212 0.017l-228.111-230.505c5.239 43.917 22.062 83.264 32.792 104.754 3.992 7.966 3.579 17.686-1.081 25.368-4.133 6.813-10.951 10.882-18.23 10.882h-35.227c-8.286 0-14.999-6.797-14.999-15.181 0-8.386 6.713-15.183 14.999-15.183h23.977c-12.804-27.178-30.215-72.271-33.354-121.605h-393.813c-3.146 49.409-20.554 94.475-33.348 121.605h149.103c2.444-11.401 6.73-29.274 13.054-48.382 11.916-36.055 58.54-58.437 63.816-60.869 3.947-1.819 8.49-1.819 12.438 0 5.274 2.433 51.871 24.81 63.838 60.872 6.31 19.105 10.582 36.978 13.021 48.379h23.437c8.287 0 15 6.797 15 15.183 0 8.384-6.713 15.181-15 15.181h-35.741c-7.297 0-13.538-5.32-14.782-12.599-0.045-0.27-4.709-27.215-14.378-56.497-5.636-16.981-28.154-32.303-41.608-39.702-13.198 7.295-36.006 22.784-41.594 39.691-9.699 29.304-14.38 56.251-14.427 56.515-1.245 7.278-7.483 12.591-14.781 12.591h-170.902c-8.182 0-15.678-4.29-20.048-11.473-4.528-7.436-4.922-16.915-1.018-24.765 9.394-18.788 30.108-65.243 33.836-115.733h-16.83c-14.316 0-25.964-11.786-25.964-26.272v-31.935c0-14.486 11.648-26.272 25.964-26.272h10.486c-2.574-18.961-5.942-42.347-9.63-66.817-1.25-8.289 4.376-16.032 12.566-17.298 0.766-0.119 1.528-0.176 2.282-0.176 7.284 0 13.676 5.383 14.808 12.895 3.98 26.405 7.594 51.586 10.252 71.397h406.104c7.414-55.179 21.031-142.531 40.554-260.106 6.063-36.439-3.515-72.964-26.279-100.21-20.138-24.104-47.572-37.377-77.248-37.377h-280.143c-29.676 0-57.11 13.273-77.25 37.377-22.764 27.246-32.342 63.77-26.274 100.215 5.63 33.913 10.85 65.808 15.512 94.799 1.332 8.276-4.218 16.077-12.394 17.423-8.186 1.361-15.884-4.268-17.214-12.544-4.654-28.94-9.866-60.783-15.486-94.641-7.534-45.268 4.476-90.776 32.952-124.858 25.56-30.591 62.066-48.137 100.158-48.137h280.143c38.093 0 74.596 17.545 100.155 48.134 28.476 34.082 40.488 79.592 32.958 124.857-18.328 110.39-31.428 193.982-39.048 249.147 10.008-6.393 21.447-9.604 32.894-9.604 15.77 0 31.538 6.067 43.544 18.196l420.031 424.458c11.616 11.739 18.014 27.395 18.014 44.088s-6.396 32.351-18.014 44.090zM35.591 425.649v23.749h445.694c-0.277-2.423-0.436-4.876-0.436-7.354 0-5.622 0.742-11.119 2.148-16.395h-447.406zM135.309 82.236c-4.747 0-9.22 2.474-13.3 7.352-6.85 8.193-9.65 19.685-7.678 31.533 15.452 93.063 27.338 168.093 35.33 223.010 1.208 8.296-4.458 16.011-12.654 17.233-8.177 1.223-15.819-4.511-17.024-12.807-7.962-54.714-19.818-129.541-35.236-222.397-3.442-20.679 1.794-41.159 14.364-56.189 9.762-11.672 22.618-18.1 36.198-18.1 8.286 0 15 6.798 15 15.183s-6.715 15.183-15 15.183zM543.499 427.315c8.284 0 15 6.798 15 15.183 0 8.386-6.716 15.183-15 15.183s-15-6.797-15-15.183c0-8.384 6.716-15.183 15-15.183z" />
<glyph unicode="&#xe909;" glyph-name="case-3" d="M810 635.733h-23.534c-12.289 10.943-28.143 17.011-44.582 17.067h-34.056v68.267c4.516 0 8.847 1.798 12.040 4.998s4.988 7.541 4.988 12.068v68.267c0 4.526-1.794 8.867-4.988 12.068s-7.524 4.999-12.040 4.999h-221.372v34.133h17.028c13.549 0 26.542 5.394 36.123 14.996s14.963 22.625 14.963 36.204-5.382 26.602-14.963 36.204c-9.58 9.602-22.573 14.996-36.123 14.996h-136.23c-13.548 0-26.542-5.394-36.123-14.996s-14.962-22.625-14.962-36.204c0-13.579 5.382-26.602 14.962-36.204s22.575-14.996 36.123-14.996h17.030v-34.133h-221.372c-4.516 0-8.847-1.799-12.041-4.999s-4.988-7.541-4.988-12.068v-51.2h-51.086c-3.367-0.001-6.659-1.002-9.459-2.878s-4.982-4.541-6.27-7.658c-1.289-3.119-1.626-6.55-0.969-9.86s2.278-6.35 4.659-8.738l80.154-80.332v-607.334c-4.516 0-8.847-1.798-12.041-4.998-3.194-3.202-4.988-7.543-4.988-12.069v-68.266c0-4.526 1.794-8.867 4.988-12.069 3.193-3.2 7.525-4.998 12.041-4.998h544.916c4.516 0 8.847 1.798 12.040 4.998 3.194 3.202 4.988 7.543 4.988 12.069v68.266c0 4.526-1.794 8.867-4.988 12.069-3.194 3.2-7.524 4.998-12.040 4.998v68.267h34.056c16.438 0.056 32.292 6.125 44.582 17.066h23.534c30.939 0.018 60.662 12.078 82.9 33.636 22.239 21.56 35.253 50.932 36.3 81.923 5.342 4.788 9.619 10.651 12.552 17.204 2.935 6.554 4.459 13.653 4.476 20.836v204.8c-0.017 7.184-1.541 14.283-4.476 20.838-2.933 6.554-7.211 12.415-12.552 17.204-1.047 30.991-14.061 60.363-36.3 81.921-22.238 21.56-51.961 33.62-82.9 33.636zM826.67 239.685c-0.805-3.834-2.901-7.273-5.937-9.74s-6.826-3.813-10.734-3.812h-23.534c-12.289 10.943-28.143 17.011-44.582 17.067h-34.056v273.067h34.056c16.438 0.056 32.292 6.125 44.582 17.066h23.534c3.908 0.003 7.698-1.344 10.734-3.811 3.036-2.468 5.132-5.907 5.937-9.74-5.229-4.777-9.41-10.59-12.28-17.070s-4.364-13.49-4.39-20.58v-204.8c0.026-7.090 1.52-14.097 4.39-20.579s7.051-12.293 12.28-17.070zM418.34 721.067v-51.2h-221.371v51.2h221.371zM673.77 533.333h-476.801v102.4h476.801v-102.4zM196.969 499.2h221.371v-238.933h-221.371v238.933zM452.398 499.2h221.372v-238.933h-221.372v238.933zM741.884 618.667c9.033 0 17.696-3.597 24.082-9.998 6.388-6.402 9.976-15.084 9.976-24.137s-3.588-17.735-9.976-24.135c-6.386-6.402-15.049-9.998-24.082-9.998h-34.056v68.267h34.056zM673.77 669.867h-221.372v51.2h221.372v-51.2zM350.226 908.8c0 4.526 1.794 8.867 4.988 12.068s7.524 4.999 12.040 4.999h136.23c4.516 0 8.848-1.798 12.040-4.999 3.194-3.201 4.988-7.542 4.988-12.068s-1.794-8.867-4.988-12.068c-3.193-3.201-7.524-4.999-12.040-4.999h-136.23c-4.516 0-8.847 1.798-12.040 4.999s-4.988 7.542-4.988 12.068zM418.34 857.6h34.058v-34.133h-34.058v34.133zM179.94 789.333h510.858v-34.133h-510.858v34.133zM162.912 721.067v-27.069l-27.007 27.069h27.007zM690.798-29.867h-510.858v34.134h510.858v-34.134zM196.969 38.4v187.733h476.801v-187.733h-476.801zM741.884 140.8h-34.056v68.267h34.056c9.033 0 17.696-3.597 24.082-9.998 6.388-6.402 9.976-15.084 9.976-24.137s-3.588-17.735-9.976-24.135c-6.386-6.402-15.049-9.998-24.082-9.998zM912.17 277.333c-0.003-2.976-0.792-5.899-2.288-8.471s-3.644-4.701-6.226-6.173c-2.586-1.496-4.735-3.648-6.23-6.239-1.493-2.591-2.283-5.531-2.285-8.524v-4.727c-0.027-22.624-9.006-44.313-24.967-60.31s-37.603-24.996-60.175-25.023h-2.419c3.224 11.147 3.224 22.984 0 34.133h2.419c13.548 0 26.542 5.395 36.123 14.996s14.962 22.625 14.962 36.204v4.727c-0.003 2.993-0.791 5.933-2.285 8.524s-3.642 4.743-6.228 6.239c-2.583 1.471-4.731 3.6-6.227 6.173s-2.284 5.495-2.288 8.471v204.8c0.004 2.977 0.793 5.9 2.288 8.472s3.644 4.701 6.227 6.171c2.586 1.497 4.734 3.649 6.228 6.24s2.283 5.531 2.285 8.523v4.729c0 13.579-5.382 26.602-14.962 36.203s-22.575 14.997-36.123 14.997h-2.419c3.224 11.147 3.224 22.984 0 34.133h2.419c22.572-0.027 44.213-9.027 60.175-25.023 15.961-15.998 24.94-37.687 24.967-60.31v-4.729c0.003-2.992 0.792-5.931 2.285-8.523 1.495-2.591 3.644-4.743 6.23-6.24 2.582-1.47 4.73-3.6 6.226-6.171s2.285-5.495 2.288-8.472v-204.8z" />
<glyph unicode="&#xe90a;" glyph-name="case-4" d="M945.925 688.168l-67.948 87.69c-9.097 11.742-22.783 18.476-37.549 18.476h-56.112c-5.296 9.858-15.638 16.568-27.504 16.568h-63.223l-184.52 62.094c-4.34 1.462-8.78 2.532-13.278 3.226l9.116 46.020c1.844 9.31-0.517 18.86-6.479 26.204-5.959 7.342-14.772 11.554-24.179 11.554h-58.422c-9.404 0-18.215-4.21-24.177-11.552-5.965-7.342-8.326-16.892-6.482-26.204l9.116-46.022c-4.497-0.694-8.936-1.764-13.277-3.226l-184.519-62.096h-63.226c-14.929 0-29.186-7.197-38.14-19.254l-29.537-39.76c-5.275-7.1-6.109-16.444-2.179-24.381 3.932-7.941 11.836-12.872 20.628-12.872h24.521c0.491 0 0.957-0.239 1.25-0.639l101.496-139.204 8.5-68.652c0.941-7.587 7.339-13.141 14.725-13.141 0.616 0 1.236 0.040 1.861 0.118 8.14 1.028 13.917 8.524 12.9 16.744l-8.839 71.392 5.705 199.647h70.905l44.008-355.438c0.529-4.268 1.627-8.336 3.173-12.164h-101.625c-0.783 0-1.445 0.59-1.54 1.371l-4.356 35.188c-1.018 8.222-8.43 14.054-16.588 13.024-8.14-1.028-13.915-8.524-12.9-16.744l4.357-35.19c1.953-15.762 15.293-27.649 31.026-27.649h3.474v-85.966h-3.829c-15.603 0-28.605-11.307-30.921-26.885l-41.481-279.172c-2.061-13.872 1.955-27.922 11.020-38.55 9.066-10.63 22.235-16.724 36.125-16.724h36.264c8.208 0 14.858 6.716 14.858 15s-6.65 14.999-14.858 14.999h-36.264c-5.31 0-10.142 2.238-13.608 6.3s-4.94 9.221-4.153 14.525l2.294 15.442h446.997l2.294-15.442c0.786-5.303-0.688-10.461-4.155-14.525-3.467-4.062-8.298-6.3-13.609-6.3h-320.363c-8.208 0-14.858-6.716-14.858-14.999 0-8.285 6.65-15 14.858-15h320.366c13.892 0 27.058 6.096 36.125 16.722 9.065 10.629 13.083 24.681 11.024 38.55l-41.479 279.177c-2.316 15.578-15.32 26.882-30.921 26.882h-3.83v85.97h3.476c15.733 0 29.073 11.886 31.026 27.652l27.346 220.848h48.168c6.172 0 12.203 1.189 17.921 3.533l27.692 11.342c21.536 8.814 46.196 1.787 59.975-17.101 8.962-12.282 12.243-27.874 9-42.775l-48.315-221.968c-0.158-0.724-0.783-1.232-1.518-1.232h-41.945c-17.241 0-31.266-14.16-31.266-31.566v-33.132c0-17.406 14.025-31.567 31.266-31.567h83.055c22.151 0 41.218 15.189 46.366 36.94l74.58 314.924c5.736 24.222 0.307 49.36-14.888 68.972zM758.365 779.332v-38.399c0-8.836-6.259-16.35-14.883-17.864l-47.38-8.32 8.19 66.15h52.52c0.856 0 1.553-0.702 1.553-1.568zM414.627 929.426c0.463 0.574 1.018 0.574 1.2 0.574h58.422c0.183 0 0.735 0 1.203-0.574 0.464-0.572 0.358-1.12 0.321-1.3l-10.095-50.958h-41.278l-10.095 50.958c-0.035 0.178-0.143 0.726 0.323 1.3zM108.556 744.635h-11.214l21.555 29.013c3.372 4.542 8.742 7.252 14.366 7.252h83.162l-4.469-156.403-78.218 107.281c-5.868 8.049-15.281 12.856-25.182 12.856zM390.407 844.536c5.185 1.746 10.586 2.63 16.056 2.63h77.151c5.47 0 10.87-0.884 16.056-2.632l99.95-33.634h-309.164l99.951 33.636zM390.552 429.184l-43.548 351.716h196.066l-43.543-351.714c-1.122-9.056-8.786-15.887-17.824-15.887h-73.331c-9.039 0-16.701 6.828-17.82 15.884zM260.724 266c0.115 0.772 0.761 1.334 1.535 1.334h102.451c-1.418-3.479-2.484-7.147-3.055-10.991l-33.292-224.077h-102.366l34.727 233.734zM500.174 251.891l32.63-219.622h-174.392l32.631 219.624c1.307 8.803 8.944 15.442 17.762 15.442h73.61c8.815 0 16.451-6.639 17.759-15.443zM629.353 266l34.726-233.734h-101.228l-33.292 224.072c-0.571 3.845-1.636 7.514-3.056 10.995h101.314c0.777 0.001 1.421-0.561 1.537-1.332zM594.274 297.334h-298.47v85.966h298.47v-85.966zM629.002 414.674c-0.098-0.784-0.758-1.374-1.54-1.374h-101.625c1.547 3.827 2.647 7.896 3.176 12.164l44.004 355.436h101.327l-45.342-366.226zM931.914 626.174l-74.58-314.924c-1.94-8.193-9.122-13.915-17.467-13.915h-83.056c-0.856 0-1.552 0.703-1.552 1.568v33.132c0 0.863 0.697 1.565 1.552 1.565h41.945c14.57 0 27.413 10.427 30.54 24.792l48.313 221.967c5.080 23.344-0.057 47.768-14.098 67.007-21.844 29.939-60.943 41.087-95.067 27.104l-27.692-11.342c-2.155-0.881-4.426-1.33-6.751-1.33h-44.454l2.701 21.825 56.324 9.89c22.892 4.019 39.506 23.962 39.506 47.42v23.4h52.35c5.563 0 10.717-2.538 14.146-6.96l67.948-87.69c9.588-12.371 13.008-28.231 9.393-43.509z" />
<glyph unicode="&#xe90b;" glyph-name="case-5" d="M36.589 516.267h238.929c9.43 0 17.071 7.64 17.071 17.070v17.063h34.132v-17.063c0-9.43 7.641-17.070 17.063-17.070h20.804l13.843-55.344c1.907-7.593 8.727-12.922 16.555-12.922h68.266c7.828 0 14.656 5.329 16.555 12.922l13.843 55.344h20.804c9.422 0 17.063 7.64 17.063 17.070v85.328c6.499-0.031 12.46 3.625 15.366 9.438l29.32 58.836h74.782v-580.272h-113.821c28.437 18.86 45.539 50.704 45.555 84.821v119.984c0 9.421-7.641 17.062-17.071 17.062h-273.061c-9.43 0-17.071-7.641-17.071-17.062h-85.335c-9.422 0-17.062-7.641-17.062-17.071v-102.399c0-9.429 7.64-17.070 17.062-17.070h86.804c4.609-27.875 20.571-52.593 44.086-68.266h-130.883c-9.43 0-17.070-7.64-17.070-17.062v-136.539c0-9.421 7.64-17.062 17.070-17.062h785.061c9.43 0 17.070 7.641 17.070 17.062v989.865c0 9.43-7.64 17.070-17.070 17.070h-785.061c-9.43 0-17.070-7.641-17.070-17.070v-238.93c0-9.429 7.64-17.070 17.070-17.070h91.852l29.406-58.828c2.891-5.781 8.805-9.438 15.273-9.438v-34.133h-34.132v17.071c0 9.422-7.641 17.062-17.071 17.062h-238.929c-9.43 0-17.070-7.64-17.070-17.062v-68.266c0-9.43 7.641-17.070 17.070-17.070zM207.252 277.338h68.266v-68.274h-68.266v68.274zM309.651 192.001v102.399h238.937v-102.913c-0.047-37.399-30.352-67.703-67.758-67.75h-103.421c-37.398 0.047-67.711 30.351-67.75 67.75l-0.008 0.515zM449.924 482.134h-41.608l-8.532 34.133h58.671l-8.532-34.133zM685.12 686.938h273.068v-580.272h-273.068v580.272zM958.188-29.865h-750.935v102.397h750.935v-102.397zM207.252 925.867h750.935v-204.796h-750.935v204.796zM320.198 686.938h217.842l-17.070-34.141h-183.703l-17.070 34.141zM497.385 618.665v-68.265h-136.532v68.265h136.532zM53.652 584.532h204.805v-34.132h-204.805v34.132zM429.122 755.203c37.703 0 68.266 30.563 68.266 68.266s-30.563 68.266-68.266 68.266c-37.703 0-68.266-30.563-68.266-68.266s30.563-68.266 68.266-68.266zM429.122 857.601c18.852 0 34.133-15.281 34.133-34.133s-15.281-34.133-34.133-34.133c-18.852 0-34.133 15.281-34.133 34.133s15.281 34.133 34.133 34.133zM531.52 840.531h34.133v-34.133h-34.133v34.133zM599.792 840.531h34.133v-34.133h-34.133v34.133zM804.587 294.399h34.133v-136.532h-34.133v136.532zM736.322 294.399h34.133v-136.532h-34.133v136.532zM872.854 294.399h34.133v-136.532h-34.133v136.532z" />
<glyph unicode="&#xe90c;" glyph-name="case-6" d="M364.71 651.399c-7.743 0-15.15 4.25-18.853 11.615l-126.246 252.493c-5.176 10.394-0.968 23.061 9.426 28.237 10.436 5.218 23.019 1.010 28.237-9.426l126.246-252.493c5.218-10.394 0.968-23.019-9.426-28.237-2.988-1.473-6.186-2.188-9.384-2.188zM659.286 651.399c-3.156 0-6.354 0.715-9.384 2.23-10.394 5.218-14.603 17.843-9.426 28.237l126.247 252.493c5.218 10.436 17.843 14.603 28.237 9.426s14.603-17.843 9.426-28.237l-126.247-252.493c-3.745-7.406-11.152-11.657-18.853-11.657zM827.618 903.891h-631.233c-11.615 0-21.041 9.426-21.041 21.041s9.426 21.041 21.041 21.041h631.233c11.615 0 21.041-9.426 21.041-21.041s-9.426-21.041-21.041-21.041zM743.451 525.151h-462.904c-34.802 0-63.123 28.321-63.123 63.123v42.082c0 34.802 28.321 63.123 63.123 63.123h462.904c34.802 0 63.123-28.321 63.123-63.123v-42.082c0-34.802-28.321-63.123-63.123-63.123zM280.547 651.397c-11.614 0-21.041-9.426-21.041-21.041v-42.082c0-11.615 9.426-21.041 21.041-21.041h462.904c11.615 0 21.041 9.426 21.041 21.041v42.082c0 11.615-9.426 21.041-21.041 21.041h-462.904zM743.452-64h-462.904c-81.219 0-147.288 66.069-147.288 147.288 0 20.031 3.956 39.473 11.741 57.737l157.977 412.7c4.166 10.857 16.412 16.202 27.185 12.12 10.857-4.166 16.286-16.328 12.12-27.185l-158.271-413.458c-5.849-13.719-8.669-27.606-8.669-41.914 0-57.989 47.216-105.205 105.205-105.205h462.904c57.989 0 105.205 47.216 105.205 105.205 0 14.308-2.82 28.195-8.374 41.198l-158.566 414.173c-4.166 10.857 1.262 23.019 12.12 27.185 10.815 4.124 22.977-1.22 27.185-12.12l158.271-413.458c7.491-17.548 11.446-36.948 11.446-56.979 0-81.219-66.069-147.288-147.288-147.288zM643.381 251.616c-41.367 0-62.997 20.747-80.377 37.411-15.528 14.939-26.764 25.712-51.214 25.712-24.408 0-35.602-10.773-51.13-25.712-17.38-16.665-38.968-37.411-80.293-37.411s-62.913 20.747-80.251 37.453c-15.528 14.897-26.764 25.67-51.13 25.67-11.615 0-21.041 9.426-21.041 21.041s9.426 21.041 21.041 21.041c41.325 0 62.913-20.747 80.251-37.453 15.528-14.897 26.764-25.67 51.13-25.67s35.602 10.773 51.13 25.67c17.338 16.665 38.968 37.453 80.293 37.453 41.367 0 62.997-20.747 80.377-37.411 15.57-14.897 26.806-25.712 51.214-25.712 24.45 0 35.686 10.773 51.256 25.712 17.38 16.665 39.010 37.411 80.377 37.411 11.615 0 21.041-9.426 21.041-21.041s-9.426-21.041-21.041-21.041c-24.45 0-35.686-10.773-51.256-25.712-17.38-16.665-39.010-37.411-80.377-37.411z" />
<glyph unicode="&#xe90d;" glyph-name="case-7" d="M708.264 260.266h-34.134v34.134h51.2c9.426 0 17.066 7.642 17.066 17.066v68.267c0 9.425-7.641 17.066-17.066 17.066h-34.134v392.534c0 9.425-7.641 17.066-17.066 17.066h-51.2v119.467h68.266v34.133h-375.466v-34.133h68.266v-119.467h-51.2c-9.425 0-17.067-7.642-17.067-17.066v-392.534h-34.133c-9.425 0-17.067-7.642-17.067-17.066v-68.267c0-9.425 7.642-17.066 17.067-17.066h51.2v-324.266c0-18.853 15.281-34.134 34.133-34.134h273.066c18.853 0 34.134 15.281 34.134 34.134v51.2h34.134c28.277 0 51.2 22.923 51.2 51.2v136.533c0 28.277-22.923 51.2-51.2 51.2zM418.13 925.867h170.666v-119.467h-170.666v119.467zM418.13 772.266h170.666v-307.2h-170.666v307.2zM639.996-29.866h-273.066v153.6h273.066v-153.6zM639.996 157.866h-273.066v136.534h273.066v-136.534zM298.663 328.534v34.133h34.133c9.425 0 17.067 7.642 17.067 17.067v392.533h34.133v-324.266c0-9.425 7.642-17.066 17.067-17.066h204.8c9.425 0 17.066 7.642 17.066 17.066v324.266h34.134v-392.533c0-9.426 7.642-17.067 17.066-17.067h34.134v-34.133h-409.6zM725.33 72.534c0-9.426-7.642-17.067-17.066-17.067h-34.134v170.667h34.134c9.425 0 17.066-7.642 17.066-17.067v-136.533z" />
<glyph unicode="&#xe90e;" glyph-name="case-2" d="M830.107 107.474h-23.704v570.612c0 0.964-0.069 1.914-0.202 2.843 19.983 24.124 32.006 55.066 32.006 88.766v150.66c9.253 1.756 16.249 9.884 16.249 19.646 0 11.044-8.956 20-20.001 20h-644.906c-11.044 0-20-8.956-20-20 0-9.762 6.996-17.89 16.248-19.646v-150.66c0-33.586 11.942-64.434 31.804-88.522v-573.698h-23.702c-33.61 0-60.952-27.343-60.952-60.954v-90.52c0-11.043 8.956-20 20-20h718.109c11.045 0 20.001 8.956 20.001 20v90.523c0 33.608-27.342 60.951-60.95 60.951zM798.208 920v-150.306c0-54.784-44.567-99.352-99.35-99.352h-373.711c-54.783 0-99.35 44.568-99.35 99.352v150.306h572.412zM481.96 549.944h60.086v-43.454h-60.086v43.454zM412.41 589.943v40.398h199.185v-40.398h-199.185zM257.602 647.834c20.020-11.142 43.054-17.492 67.545-17.492h47.264v-60.398c0-11.043 8.956-20 20-20h49.548v-63.454c0-11.045 8.956-20 20-20h100.086c11.045 0 20 8.955 20 20v63.454h49.548c11.045 0 20 8.956 20 20v60.398h47.265c24.489 0 47.526 6.352 67.544 17.492v-540.36h-136.832c6.975 11.92 10.978 25.783 10.978 40.563v10.391h52.88c11.045 0 20.001 8.956 20.001 20.001v97.631c0 11.045-8.956 20.001-20.001 20.001h-52.88v15.913c0 11.045-8.955 20-20 20h-216.504c-11.043 0-20-8.955-20-20v-163.938c0-14.78 4.002-28.643 10.978-40.563h-137.418v540.36zM424.042 148.037v143.939h176.508v-143.939c0-22.367-18.198-40.561-40.564-40.561h-95.378c-22.37-0.002-40.566 18.194-40.566 40.561zM640.549 256.060h32.88v-57.629h-32.88v57.629zM851.056-24.001h-678.108v70.523c0 11.552 9.398 20.953 20.952 20.953h636.208c11.553 0 20.953-9.4 20.953-20.953l-0.005-70.523zM329.196 719.539c33.059 0 59.958 26.897 59.958 59.959s-26.896 59.958-59.958 59.958c-33.062 0-59.958-26.896-59.958-59.958s26.896-59.959 59.958-59.959zM329.196 799.454c11.004 0 19.958-8.954 19.958-19.958s-8.954-19.958-19.958-19.958c-11.004 0-19.958 8.954-19.958 19.958s8.954 19.958 19.958 19.958zM619.365 795.237h115.405c11.043 0 20 8.956 20 20.001 0 11.043-8.956 20-20 20h-115.405c-11.043 0-20-8.956-20-20 0-11.045 8.954-20.001 20-20.001zM619.365 723.751h115.405c11.043 0 20 8.956 20 20 0 11.045-8.956 20-20 20h-115.405c-11.043 0-20-8.955-20-20 0-11.043 8.954-20 20-20z" />
<glyph unicode="&#xe90f;" glyph-name="advant-1" d="M231.271 930.743c-24.237 0-43.886-19.648-43.886-43.886v-131.657c0-24.237 19.648-43.886 43.886-43.886s43.886 19.648 43.886 43.886v131.657c0 24.237-19.648 43.886-43.886 43.886zM404.027 930.743c-24.237 0-43.886-19.648-43.886-43.886v-131.657c0-24.237 19.649-43.886 43.886-43.886 24.24 0 43.886 19.648 43.886 43.886v131.657c0 24.237-19.646 43.886-43.886 43.886zM576.784 930.743c-24.237 0-43.886-19.648-43.886-43.886v-131.657c0-24.237 19.649-43.886 43.886-43.886s43.886 19.648 43.886 43.886v131.657c0 24.237-19.649 43.886-43.886 43.886zM14.629 579.657v-394.971c0-57.97 22.657-113.708 63.206-154.911 40.572-41.226 95.751-64.518 153.436-64.518h345.513c57.686 0 112.862 23.292 153.436 64.518 40.547 41.203 63.204 96.941 63.204 154.911 57.435 0.187 112.333 23.458 152.74 64.518 40.55 41.203 63.207 96.941 63.207 154.911s-22.657 113.708-63.207 154.911c-40.571 41.226-95.75 64.518-153.436 64.518h-734.214c-24.237 0-43.886-19.649-43.886-43.886zM793.424 272.46v263.308c33.701-0.184 66.124-13.862 90.182-38.309 24.248-24.637 37.993-58.204 37.993-93.345s-13.745-68.707-37.993-93.345c-24.058-24.447-56.481-38.125-90.182-38.309zM705.653 535.771v-351.086c0-35.141-13.745-68.707-37.99-93.345-24.225-24.614-56.929-38.312-90.879-38.312h-345.513c-33.95 0-66.654 13.698-90.878 38.312-24.247 24.637-37.993 58.204-37.993 93.345v351.086h603.253z" />
<glyph unicode="&#xe910;" glyph-name="advant-2" d="M14.629 901.486c0 24.237 19.648 43.886 43.886 43.886h473.082c11.641 0 22.803-4.625 31.036-12.858l406.467-406.575c25.796-25.957 40.272-61.066 40.272-97.657s-14.476-71.7-40.272-97.657l-339.272-339.362c-12.864-12.879-28.14-23.099-44.954-30.070s-34.839-10.562-53.043-10.562c-18.201 0-36.226 3.59-53.040 10.562-16.799 6.966-32.063 17.171-44.918 30.035zM433.837-8.739l-406.34 405.975c-8.239 8.23-12.868 19.397-12.868 31.045v473.205zM102.4 857.6v-411.13l393.544-393.187c4.713-4.719 10.307-8.461 16.466-11.015 6.156-2.554 12.756-3.868 19.421-3.868 6.668 0 13.268 1.314 19.424 3.868 6.159 2.554 11.753 6.296 16.466 11.015l339.122 339.21c0.015 0.015 0.026 0.026 0.038 0.038 9.427 9.506 14.719 22.355 14.719 35.749s-5.293 26.241-14.716 35.746c-0.012 0.015-0.026 0.026-0.041 0.041l-393.43 393.532h-411.013zM251.169 664.883c0 24.237 19.648 43.886 43.886 43.886h0.474c24.237 0 43.886-19.648 43.886-43.886s-19.649-43.886-43.886-43.886h-0.474c-24.238 0-43.886 19.649-43.886 43.886z" />
<glyph unicode="&#xe911;" glyph-name="advant-3" d="M365.381 793.6c-70.674 0-129.163-58.551-129.163-132.267s58.489-132.266 129.163-132.266c70.674 0 129.165 58.55 129.165 132.266s-58.491 132.267-129.165 132.267zM159.418 661.333c0 114.797 91.552 209.067 205.963 209.067s205.965-94.27 205.965-209.067c0-114.796-91.553-209.066-205.965-209.066s-205.963 94.269-205.963 209.066zM999.703 603.4c15.132-14.856 15.355-39.168 0.497-54.303l-167.562-170.668c-7.222-7.352-17.096-11.497-27.402-11.497-10.304 0-20.178 4.145-27.4 11.497l-83.781 85.335c-14.858 15.132-14.636 39.444 0.497 54.303 15.135 14.858 39.447 14.636 54.305-0.497l56.379-57.426 140.165 142.758c14.856 15.132 39.168 15.355 54.303 0.497zM72.877 296.916c38.569 39.283 91.032 61.484 145.886 61.484h293.236c54.856 0 107.318-22.2 145.887-61.484 38.546-39.26 60.078-92.36 60.078-147.584v-85.332c0-21.207-17.193-38.4-38.4-38.4-21.21 0-38.4 17.193-38.4 38.4v85.332c0 35.305-13.778 69.025-38.080 93.778-24.279 24.73-57.057 38.49-91.085 38.49h-293.236c-34.026 0-66.805-13.76-91.084-38.49-24.303-24.753-38.079-58.473-38.079-93.778v-85.332c0-21.207-17.192-38.4-38.4-38.4s-38.4 17.193-38.4 38.4v85.332c0 55.224 21.532 108.324 60.077 147.584z" />
<glyph unicode="&#xe912;" glyph-name="search" d="M461.613 857.6c198.387 0 359.213-160.825 359.213-359.213 0-96.961-38.418-184.952-100.864-249.575-1.635-1.232-3.204-2.592-4.693-4.081s-2.85-3.057-4.081-4.693c-64.623-62.446-152.614-100.864-249.575-100.864-198.388 0-359.213 160.827-359.213 359.213 0 198.388 160.825 359.213 359.213 359.213zM807.193 214.87c63.365 77.148 101.405 175.891 101.405 283.516 0 246.863-200.122 446.985-446.985 446.985s-446.985-200.121-446.985-446.985c0-246.863 200.121-446.985 446.985-446.985 107.625 0 206.368 38.040 283.516 101.405l189.323-189.326c17.139-17.136 44.927-17.136 62.066 0 17.136 17.139 17.136 44.927 0 62.066l-189.326 189.323z" />
<glyph unicode="&#xe913;" glyph-name="basket" d="M13.838 876.973c0 22.927 18.586 41.514 41.514 41.514h166.054c19.738 0 36.747-13.898 40.681-33.24l34.785-171.033h671.777c12.393 0 24.139-5.538 32.026-15.098 7.885-9.561 11.087-22.145 8.729-34.313l-66.483-343.087c-5.757-28.52-21.498-54.001-44.289-72.056-22.664-17.953-50.893-27.465-79.783-27.020h-402.808c-28.891-0.446-57.12 9.067-79.783 27.020-22.78 18.047-38.513 43.509-44.278 72.012-0.003 0.014-0.006 0.030-0.011 0.047l-69.335 340.925c-0.285 1.147-0.523 2.312-0.711 3.495l-34.436 169.321h-132.134c-22.927 0-41.514 18.586-41.514 41.514zM313.756 631.185l59.6-293.041c1.835-9.097 6.891-17.411 14.458-23.405 7.58-6.006 17.17-9.266 27.092-9.078l0.783 0.006 404.295-0.006c9.922-0.188 19.511 3.072 27.092 9.078 7.533 5.967 12.576 14.231 14.433 23.278l56.81 293.168h-604.561zM304.432 59.882c0 46.113 37.802 82.368 83.027 82.368s83.027-36.255 83.027-82.368c0-46.116-37.802-82.368-83.027-82.368s-83.027 36.252-83.027 82.368zM761.081 59.882c0 46.113 37.802 82.368 83.027 82.368s83.027-36.255 83.027-82.368c0-46.116-37.802-82.368-83.027-82.368s-83.027 36.252-83.027 82.368z" />
<glyph unicode="&#xe914;" glyph-name="login" d="M512 860.444c-91.11 0-163.556-72.232-163.556-159.605s72.445-159.604 163.556-159.604c91.11 0 163.556 72.232 163.556 159.604s-72.445 159.605-163.556 159.605zM263.111 700.84c0 136.050 112.213 244.938 248.889 244.938s248.889-108.888 248.889-244.938c0-136.049-112.213-244.938-248.889-244.938s-248.889 108.888-248.889 244.938zM130.080 267.511c46.736 45.841 109.952 71.452 175.698 71.452h412.444c65.746 0 128.961-25.611 175.698-71.452 46.763-45.867 73.19-108.257 73.19-173.486v-101.137c0-23.563-19.103-42.667-42.667-42.667s-42.667 19.103-42.667 42.667v101.137c0 42.058-17.027 82.569-47.61 112.566-30.612 30.026-72.303 47.039-115.945 47.039h-412.444c-43.641 0-85.332-17.013-115.944-47.039-30.584-29.998-47.611-70.508-47.611-112.566v-101.137c0-23.563-19.102-42.667-42.667-42.667s-42.667 19.103-42.667 42.667v101.137c0 65.229 26.427 127.619 73.191 173.486z" />
</font>
</defs>
</svg>
