<svg width="100%" height="100%" viewBox="0 0 1025 1234" fill="none" xmlns="http://www.w3.org/2000/svg">
<path fill-rule="evenodd" clip-rule="evenodd" d="M603.719 112.003C690.239 135.302 789.445 96.4713 861.64 157.779C944.144 227.842 1023.9 333.521 1024.03 468.929C1024.16 603.316 919.563 704.436 862.295 824.529C806.62 941.281 782.334 1088.41 693.582 1161.88C601.32 1238.26 487.101 1247.56 389.071 1216.27C295.822 1186.51 238.562 1083.15 173.13 995.757C104.887 904.615 -6.56879 832.802 0.508173 697.325C7.66252 560.368 146.528 492.814 205.717 371.936C261.65 257.706 242.284 75.814 334.24 15.7578C426.244 -44.3294 509.678 86.6793 603.719 112.003Z" fill="#F9B300"/>
</svg>
